<svg width="79" height="15" viewBox="0 0 79 15" fill="none" xmlns="http://www.w3.org/2000/svg">
<path d="M78.7071 8.21785C79.0976 7.82732 79.0976 7.19416 78.7071 6.80364L72.3431 0.439674C71.9526 0.0491501 71.3195 0.0491501 70.9289 0.439674C70.5384 0.830199 70.5384 1.46336 70.9289 1.85389L76.5858 7.51074L70.9289 13.1676C70.5384 13.5581 70.5384 14.1913 70.9289 14.5818C71.3195 14.9723 71.9526 14.9723 72.3431 14.5818L78.7071 8.21785ZM0 8.51074H2.78571V6.51074H0V8.51074ZM8.35714 8.51074H13.9286V6.51074H8.35714V8.51074ZM19.5 8.51074H25.0714V6.51074H19.5V8.51074ZM30.6429 8.51074H36.2143V6.51074H30.6429V8.51074ZM41.7857 8.51074H47.3571V6.51074H41.7857V8.51074ZM52.9286 8.51074H58.5V6.51074H52.9286V8.51074ZM64.0714 8.51074H69.6429V6.51074H64.0714V8.51074ZM75.2143 8.51074H78V6.51074H75.2143V8.51074ZM78.7071 8.21785C79.0976 7.82732 79.0976 7.19416 78.7071 6.80364L72.3431 0.439674C71.9526 0.0491501 71.3195 0.0491501 70.9289 0.439674C70.5384 0.830199 70.5384 1.46336 70.9289 1.85389L76.5858 7.51074L70.9289 13.1676C70.5384 13.5581 70.5384 14.1913 70.9289 14.5818C71.3195 14.9723 71.9526 14.9723 72.3431 14.5818L78.7071 8.21785ZM0 8.51074H2.78571V6.51074H0V8.51074ZM8.35714 8.51074H13.9286V6.51074H8.35714V8.51074ZM19.5 8.51074H25.0714V6.51074H19.5V8.51074ZM30.6429 8.51074H36.2143V6.51074H30.6429V8.51074ZM41.7857 8.51074H47.3571V6.51074H41.7857V8.51074ZM52.9286 8.51074H58.5V6.51074H52.9286V8.51074ZM64.0714 8.51074H69.6429V6.51074H64.0714V8.51074ZM75.2143 8.51074H78V6.51074H75.2143V8.51074Z" fill="#E7E7E7"/>
</svg>
