<svg width="26" height="26" viewBox="0 0 26 26" fill="none" xmlns="http://www.w3.org/2000/svg">
<path fill-rule="evenodd" clip-rule="evenodd" d="M13.1754 23.3506C7.5505 23.3506 2.98535 18.7956 2.98535 13.1605C2.98535 7.5356 7.5505 2.97046 13.1754 2.97046C18.8105 2.97046 23.3655 7.5356 23.3655 13.1605C23.3655 18.7956 18.8105 23.3506 13.1754 23.3506ZM16.4259 16.9411C16.5481 17.0124 16.6806 17.0532 16.8233 17.0532C17.078 17.0532 17.3328 16.9207 17.4754 16.6761C17.6894 16.3195 17.5773 15.8507 17.2105 15.6266L13.5828 13.4663V8.75846C13.5828 8.33047 13.2364 7.9942 12.8186 7.9942C12.4008 7.9942 12.0543 8.33047 12.0543 8.75846V13.9044C12.0543 14.1694 12.197 14.4139 12.4314 14.5566L16.4259 16.9411Z" fill="#8D8D8D"/>
</svg>
