<svg width="22" height="23" viewBox="0 0 22 23" fill="none" xmlns="http://www.w3.org/2000/svg">
<path d="M13.9116 0.516324C14.4126 0.699239 14.9276 0.850606 15.4112 1.07029C16.6096 1.61478 17.5643 2.46149 18.3069 3.54322C19.0927 4.68757 19.5235 5.96007 19.5837 7.34586C19.6538 8.95666 19.2415 10.4424 18.3366 11.7822C17.4274 13.1282 16.1977 14.0704 14.6702 14.6117C13.3768 15.0698 12.0491 15.1523 10.7076 14.8574C8.91168 14.4624 7.45482 13.5254 6.35881 12.0491C5.36041 10.7037 4.86893 9.18465 4.91876 7.50754C4.98187 5.36646 5.82137 3.56769 7.42952 2.15922C8.85679 0.909458 10.5418 0.308284 12.4463 0.349654C12.6605 0.354216 12.8749 0.366256 13.089 0.374512C13.363 0.421753 13.6375 0.469083 13.9116 0.516324ZM9.14883 9.66575C8.92941 10.2506 9.393 10.7952 10.1125 10.5771C10.6097 10.4263 11.125 10.3358 11.6302 10.2092C11.7707 10.174 11.88 10.1971 11.9993 10.276C12.4626 10.5829 12.9297 10.883 13.3981 11.1812C13.9181 11.5122 14.4311 11.2697 14.5014 10.6559C14.5706 10.0551 14.6227 9.45201 14.6965 8.85208C14.7092 8.74765 14.7692 8.62698 14.846 8.55589C15.2748 8.15985 15.7175 7.7784 16.1517 7.38807C16.6266 6.96073 16.5428 6.42752 15.9627 6.16255C15.4571 5.93218 14.9481 5.70969 14.448 5.46912C14.3546 5.42438 14.2617 5.32404 14.2228 5.22768C14.0036 4.68705 13.8033 4.13853 13.5915 3.59493C13.3658 3.01552 12.7617 2.91455 12.3542 3.38692C11.9864 3.81259 11.6177 4.23807 11.2596 4.67229C11.1546 4.79952 11.0453 4.86185 10.8772 4.87317C10.3439 4.90749 9.81157 4.96158 9.27949 5.00776C8.62753 5.06457 8.37036 5.5337 8.68093 6.106C8.95612 6.61332 9.243 7.11417 9.5101 7.62541C9.56142 7.7239 9.58109 7.86467 9.55703 7.9735C9.43368 8.52935 9.2914 9.08139 9.14883 9.66575Z" fill="#8A48F7"/>
<path d="M0.049641 15.5764C1.39401 13.9537 2.73828 12.3316 4.10338 10.6839C5.22555 13.4457 7.18675 15.2468 10.035 16.082C9.9989 16.1315 9.9693 16.1773 9.93466 16.2185C8.75283 17.6385 7.5716 19.0579 6.3884 20.4765C6.11621 20.8025 5.77839 20.8827 5.4694 20.6974C5.22375 20.55 5.15294 20.3097 5.12973 20.0421C5.02022 18.7979 4.90805 17.5538 4.79639 16.3098C4.79229 16.2629 4.78176 16.2166 4.77133 16.1511C4.23256 16.1993 3.70202 16.2458 3.17225 16.294C2.41917 16.363 1.66592 16.4332 0.912749 16.5028C0.354823 16.5546 0.129476 16.3969 0 15.8643C0.0166062 15.768 0.0331236 15.6722 0.049641 15.5764Z" fill="#8A48F7"/>
<path d="M21.0583 19.4952C20.7567 19.9518 20.4912 20.0243 19.9837 19.7894C18.8688 19.2736 17.7537 18.7584 16.6387 18.2431C16.5838 18.2177 16.5272 18.1958 16.4536 18.1651C16.227 18.6564 16.0071 19.1336 15.7871 19.6112C15.4504 20.3424 15.1195 21.0763 14.7754 21.8041C14.5706 22.2367 14.1029 22.3671 13.758 22.0891C13.6553 22.0062 13.5644 21.8823 13.5185 21.7582C12.8565 19.9817 12.2035 18.202 11.5483 16.423C11.5392 16.3986 11.5382 16.3709 11.5324 16.3402C14.4877 16.5049 16.935 15.4707 18.9254 13.2392C19.6579 15.2426 20.383 17.2247 21.108 19.2072C21.0915 19.303 21.0749 19.3988 21.0583 19.4952Z" fill="#8A48F7"/>
</svg>
