<svg width="23" height="23" viewBox="0 0 23 23" fill="none" xmlns="http://www.w3.org/2000/svg">
<path d="M14.9191 0.180174C15.4297 0.366566 15.9545 0.520809 16.4472 0.744673C17.6684 1.2995 18.6412 2.16231 19.398 3.2646C20.1988 4.4307 20.6377 5.72739 20.699 7.13951C20.7705 8.78093 20.3504 10.2949 19.4283 11.6602C18.5018 13.0317 17.2487 13.9919 15.6922 14.5435C14.3742 15.0103 13.0213 15.0943 11.6543 14.7938C9.82422 14.3913 8.33967 13.4365 7.22283 11.9321C6.20545 10.5611 5.70463 9.01325 5.75541 7.30426C5.81972 5.12249 6.67518 3.28954 8.31389 1.85429C9.76828 0.58078 11.4853 -0.0318199 13.426 0.0103362C13.6443 0.0149852 13.8628 0.0272538 14.0809 0.0356674C14.3601 0.0838061 14.6399 0.132035 14.9191 0.180174ZM10.0659 9.50349C9.84229 10.0995 10.3147 10.6544 11.0478 10.4322C11.5545 10.2785 12.0796 10.1863 12.5944 10.0572C12.7376 10.0214 12.849 10.0449 12.9705 10.1253C13.4426 10.438 13.9186 10.7439 14.3959 11.0478C14.9258 11.385 15.4485 11.1379 15.5202 10.5124C15.5907 9.90029 15.6438 9.28569 15.7189 8.67436C15.7319 8.56795 15.793 8.44498 15.8713 8.37254C16.3083 7.96897 16.7594 7.58028 17.2018 7.18252C17.6858 6.74707 17.6004 6.20372 17.0092 5.93372C16.4941 5.69896 15.9753 5.47225 15.4657 5.22711C15.3705 5.18151 15.276 5.07926 15.2362 4.98107C15.0129 4.43017 14.8088 3.87122 14.593 3.31729C14.363 2.72687 13.7474 2.62398 13.3321 3.10533C12.9574 3.53908 12.5817 3.97266 12.2168 4.41513C12.1097 4.54477 11.9984 4.60829 11.827 4.61982C11.2837 4.65479 10.7412 4.70991 10.199 4.75698C9.53466 4.81487 9.27261 5.29291 9.58908 5.87608C9.8695 6.39305 10.1618 6.90342 10.434 7.42437C10.4863 7.52473 10.5064 7.66818 10.4818 7.77908C10.3561 8.34549 10.2112 8.90803 10.0659 9.50349Z" fill="#F77C48"/>
<path d="M0.793749 15.5264C2.16367 13.873 3.53349 12.22 4.92454 10.541C6.06803 13.3553 8.0665 15.1906 10.9688 16.0417C10.9321 16.0921 10.9019 16.1388 10.8666 16.1808C9.66235 17.6277 8.45867 19.0742 7.25299 20.5198C6.97562 20.8519 6.63137 20.9336 6.31652 20.7448C6.0662 20.5946 5.99404 20.3497 5.97038 20.077C5.85879 18.8092 5.74449 17.5415 5.63071 16.2738C5.62654 16.2261 5.6158 16.1788 5.60518 16.1121C5.05616 16.1613 4.51555 16.2086 3.97571 16.2577C3.20832 16.3281 2.44074 16.3995 1.67326 16.4704C1.10473 16.5232 0.875101 16.3626 0.743164 15.8199C0.760086 15.7217 0.776917 15.6241 0.793749 15.5264Z" fill="#F77C48"/>
<path d="M22.2017 19.5197C21.8944 19.9851 21.6238 20.059 21.1067 19.8196C19.9706 19.294 18.8343 18.7689 17.6981 18.2439C17.6421 18.218 17.5845 18.1957 17.5095 18.1643C17.2786 18.6651 17.0545 19.1513 16.8303 19.638C16.4872 20.3831 16.15 21.1309 15.7994 21.8726C15.5907 22.3133 15.1141 22.4463 14.7626 22.163C14.658 22.0785 14.5654 21.9522 14.5186 21.8258C13.844 20.0156 13.1786 18.202 12.5109 16.3892C12.5017 16.3643 12.5007 16.336 12.4947 16.3048C15.5062 16.4726 18.0001 15.4188 20.0283 13.1448C20.7747 15.1864 21.5136 17.2061 22.2523 19.2263C22.2355 19.3239 22.2186 19.4216 22.2017 19.5197Z" fill="#F77C48"/>
</svg>
