<svg width="27" height="26" viewBox="0 0 27 26" fill="none" xmlns="http://www.w3.org/2000/svg">
<path fill-rule="evenodd" clip-rule="evenodd" d="M21.5011 13.4865C21.467 14.3148 22.1194 15.0167 22.9553 15.0511C23.3768 15.0684 23.705 15.4215 23.6878 15.8391L23.5757 18.564C23.4809 20.8682 21.512 22.6648 19.1866 22.5691L7.25904 22.0783C4.9336 21.9827 3.11799 20.0304 3.2128 17.7262L3.32492 15.0013C3.3421 14.5836 3.69814 14.2587 4.11966 14.2761C4.95657 14.3105 5.66442 13.6646 5.6985 12.8363C5.7317 12.0293 5.10406 11.3951 4.23966 11.3595C4.03705 11.3512 3.84688 11.2635 3.70917 11.1154C3.57147 10.9672 3.49896 10.7712 3.50718 10.5715L3.62499 7.7579C3.71979 5.4537 5.68867 3.6561 8.01411 3.75179L19.9386 4.24242C22.2641 4.3381 24.0796 6.29141 23.9848 8.59561L23.8737 11.3215C23.8655 11.5213 23.7771 11.7117 23.6287 11.847C23.4793 11.9834 23.2826 12.0551 23.0789 12.0467C22.243 12.0124 21.5352 12.6583 21.5011 13.4865ZM15.8648 13.9145L17.1129 12.8058C17.3298 12.6146 17.4142 12.323 17.3348 12.0469C17.2564 11.7708 17.0302 11.5675 16.7488 11.5165L15.1001 11.2082L14.4191 9.68857C14.3024 9.42708 14.0504 9.25705 13.7623 9.24418L13.7602 9.2441C13.4731 9.23228 13.2079 9.38104 13.0681 9.63197L12.2646 11.0915L10.5992 11.2625C10.3115 11.291 10.0693 11.4751 9.9675 11.7438C9.86669 12.0125 9.92686 12.31 10.1263 12.5183L11.2791 13.7259L10.9287 15.3516C10.8682 15.632 10.9717 15.9172 11.1989 16.0953C11.3274 16.1946 11.4792 16.2493 11.635 16.2558C11.7541 16.2607 11.8754 16.2363 11.9877 16.1834L13.504 15.4717L14.9537 16.3034C15.2047 16.4501 15.5099 16.4415 15.7501 16.2816C15.9922 16.1238 16.1187 15.8481 16.0815 15.5636L15.8648 13.9145Z" fill="#130F26"/>
<path fill-rule="evenodd" clip-rule="evenodd" d="M21.5011 13.4865C21.467 14.3148 22.1194 15.0167 22.9553 15.0511C23.3768 15.0684 23.705 15.4215 23.6878 15.8391L23.5757 18.564C23.4809 20.8682 21.512 22.6648 19.1866 22.5691L7.25904 22.0783C4.9336 21.9827 3.11799 20.0304 3.2128 17.7262L3.32492 15.0013C3.3421 14.5836 3.69814 14.2587 4.11966 14.2761C4.95657 14.3105 5.66442 13.6646 5.6985 12.8363C5.7317 12.0293 5.10406 11.3951 4.23966 11.3595C4.03705 11.3512 3.84688 11.2635 3.70917 11.1154C3.57147 10.9672 3.49896 10.7712 3.50718 10.5715L3.62499 7.7579C3.71979 5.4537 5.68867 3.6561 8.01411 3.75179L19.9386 4.24242C22.2641 4.3381 24.0796 6.29141 23.9848 8.59561L23.8737 11.3215C23.8655 11.5213 23.7771 11.7117 23.6287 11.847C23.4793 11.9834 23.2826 12.0551 23.0789 12.0467C22.243 12.0124 21.5352 12.6583 21.5011 13.4865ZM15.8648 13.9145L17.1129 12.8058C17.3298 12.6146 17.4142 12.323 17.3348 12.0469C17.2564 11.7708 17.0302 11.5675 16.7488 11.5165L15.1001 11.2082L14.4191 9.68857C14.3024 9.42708 14.0504 9.25705 13.7623 9.24418L13.7602 9.2441C13.4731 9.23228 13.2079 9.38104 13.0681 9.63197L12.2646 11.0915L10.5992 11.2625C10.3115 11.291 10.0693 11.4751 9.9675 11.7438C9.86669 12.0125 9.92686 12.31 10.1263 12.5183L11.2791 13.7259L10.9287 15.3516C10.8682 15.632 10.9717 15.9172 11.1989 16.0953C11.3274 16.1946 11.4792 16.2493 11.635 16.2558C11.7541 16.2607 11.8754 16.2363 11.9877 16.1834L13.504 15.4717L14.9537 16.3034C15.2047 16.4501 15.5099 16.4415 15.7501 16.2816C15.9922 16.1238 16.1187 15.8481 16.0815 15.5636L15.8648 13.9145Z" fill="#4876F7"/>
</svg>
