<svg width="22" height="23" viewBox="0 0 22 23" fill="none" xmlns="http://www.w3.org/2000/svg">
<path d="M13.9116 0.5164C14.4126 0.699316 14.9276 0.850682 15.4112 1.07037C16.6096 1.61485 17.5643 2.46156 18.3069 3.5433C19.0927 4.68765 19.5235 5.96015 19.5837 7.34593C19.6538 8.95674 19.2415 10.4425 18.3366 11.7823C17.4274 13.1283 16.1977 14.0705 14.6702 14.6118C13.3768 15.0699 12.0491 15.1524 10.7076 14.8575C8.91168 14.4625 7.45482 13.5255 6.35881 12.0492C5.36041 10.7037 4.86893 9.18473 4.91876 7.50761C4.98187 5.36654 5.82137 3.56777 7.42952 2.1593C8.85679 0.909534 10.5418 0.30836 12.4463 0.34973C12.6605 0.354292 12.8749 0.366332 13.089 0.374589C13.363 0.42183 13.6375 0.469159 13.9116 0.5164ZM9.14883 9.66583C8.92941 10.2507 9.393 10.7953 10.1125 10.5772C10.6097 10.4263 11.125 10.3359 11.6302 10.2092C11.7707 10.174 11.88 10.1971 11.9993 10.276C12.4626 10.5829 12.9297 10.8831 13.3981 11.1813C13.9181 11.5123 14.4311 11.2697 14.5014 10.6559C14.5706 10.0552 14.6227 9.45208 14.6965 8.85216C14.7092 8.74773 14.7692 8.62705 14.846 8.55596C15.2748 8.15992 15.7175 7.77848 16.1517 7.38814C16.6266 6.96081 16.5428 6.4276 15.9627 6.16263C15.4571 5.93226 14.9481 5.70977 14.448 5.4692C14.3546 5.42445 14.2617 5.32411 14.2228 5.22775C14.0036 4.68713 13.8033 4.13861 13.5915 3.59501C13.3658 3.01559 12.7617 2.91463 12.3542 3.387C11.9864 3.81266 11.6177 4.23815 11.2596 4.67237C11.1546 4.79959 11.0453 4.86192 10.8772 4.87324C10.3439 4.90756 9.81157 4.96165 9.27949 5.00784C8.62753 5.06465 8.37036 5.53377 8.68093 6.10607C8.95612 6.6134 9.243 7.11425 9.5101 7.62548C9.56142 7.72397 9.58109 7.86475 9.55703 7.97358C9.43368 8.52942 9.2914 9.08147 9.14883 9.66583Z" fill="#F77C48"/>
<path d="M0.049641 15.5764C1.39401 13.9538 2.73828 12.3317 4.10338 10.684C5.22555 13.4458 7.18675 15.2468 10.035 16.0821C9.9989 16.1316 9.9693 16.1774 9.93466 16.2186C8.75283 17.6385 7.5716 19.058 6.3884 20.4766C6.11621 20.8026 5.77839 20.8828 5.4694 20.6974C5.22375 20.5501 5.15294 20.3098 5.12973 20.0422C5.02022 18.798 4.90805 17.5539 4.79639 16.3099C4.79229 16.263 4.78176 16.2166 4.77133 16.1512C4.23256 16.1994 3.70202 16.2459 3.17225 16.294C2.41917 16.3631 1.66592 16.4332 0.912749 16.5028C0.354823 16.5546 0.129476 16.397 0 15.8644C0.0166062 15.7681 0.0331236 15.6722 0.049641 15.5764Z" fill="#F77C48"/>
<path d="M21.0583 19.4952C20.7567 19.9519 20.4912 20.0244 19.9837 19.7895C18.8688 19.2737 17.7537 18.7585 16.6387 18.2432C16.5838 18.2178 16.5272 18.1959 16.4536 18.1651C16.227 18.6565 16.0071 19.1336 15.7871 19.6113C15.4504 20.3425 15.1195 21.0764 14.7754 21.8042C14.5706 22.2367 14.1029 22.3672 13.758 22.0892C13.6553 22.0063 13.5644 21.8824 13.5185 21.7583C12.8565 19.9818 12.2035 18.2021 11.5483 16.4231C11.5392 16.3987 11.5382 16.3709 11.5324 16.3402C14.4877 16.5049 16.935 15.4708 18.9254 13.2392C19.6579 15.2427 20.383 17.2247 21.108 19.2073C21.0915 19.3031 21.0749 19.3989 21.0583 19.4952Z" fill="#F77C48"/>
</svg>
