<svg width="21" height="21" viewBox="0 0 21 21" fill="none" xmlns="http://www.w3.org/2000/svg">
<path d="M7.09984 2.16666H4.28317C3.1165 2.16666 2.1665 3.125 2.1665 4.30083V7.14166C2.1665 8.325 3.1165 9.275 4.28317 9.275H7.09984C8.27484 9.275 9.2165 8.325 9.2165 7.14166V4.30083C9.2165 3.125 8.27484 2.16666 7.09984 2.16666Z" fill="#4876F7"/>
<path d="M7.09984 11.7247H4.28317C3.1165 11.7247 2.1665 12.6756 2.1665 13.8589V16.6997C2.1665 17.8747 3.1165 18.8331 4.28317 18.8331H7.09984C8.27484 18.8331 9.2165 17.8747 9.2165 16.6997V13.8589C9.2165 12.6756 8.27484 11.7247 7.09984 11.7247Z" fill="#4876F7"/>
<path d="M16.7165 2.16666H13.8999C12.7249 2.16666 11.7832 3.125 11.7832 4.30083V7.14166C11.7832 8.325 12.7249 9.275 13.8999 9.275H16.7165C17.8832 9.275 18.8332 8.325 18.8332 7.14166V4.30083C18.8332 3.125 17.8832 2.16666 16.7165 2.16666Z" fill="#4876F7"/>
<path d="M16.7165 11.7247H13.8999C12.7249 11.7247 11.7832 12.6756 11.7832 13.8589V16.6997C11.7832 17.8747 12.7249 18.8331 13.8999 18.8331H16.7165C17.8832 18.8331 18.8332 17.8747 18.8332 16.6997V13.8589C18.8332 12.6756 17.8832 11.7247 16.7165 11.7247Z" fill="#4876F7"/>
</svg>
