<svg width="24" height="24" viewBox="0 0 24 24" fill="none" xmlns="http://www.w3.org/2000/svg">
<path d="M2.75 3.24988L4.83 3.60988L5.793 15.0829C5.87 16.0199 6.653 16.7389 7.593 16.7359H18.502C19.399 16.7379 20.16 16.0779 20.287 15.1899L21.236 8.63188C21.342 7.89888 20.833 7.21888 20.101 7.11288C20.037 7.10388 5.164 7.09888 5.164 7.09888" stroke="#8C888A" stroke-width="1.5" stroke-linecap="round" stroke-linejoin="round"/>
<path d="M14.125 10.7948H16.898" stroke="#8C888A" stroke-width="1.5" stroke-linecap="round" stroke-linejoin="round"/>
<path fill-rule="evenodd" clip-rule="evenodd" d="M7.15338 20.2025C7.45438 20.2025 7.69738 20.4465 7.69738 20.7465C7.69738 21.0475 7.45438 21.2915 7.15338 21.2915C6.85238 21.2915 6.60938 21.0475 6.60938 20.7465C6.60938 20.4465 6.85238 20.2025 7.15338 20.2025Z" fill="#8C888A" stroke="#8C888A" stroke-width="1.5" stroke-linecap="round" stroke-linejoin="round"/>
<path fill-rule="evenodd" clip-rule="evenodd" d="M18.4346 20.2025C18.7356 20.2025 18.9796 20.4465 18.9796 20.7465C18.9796 21.0475 18.7356 21.2915 18.4346 21.2915C18.1336 21.2915 17.8906 21.0475 17.8906 20.7465C17.8906 20.4465 18.1336 20.2025 18.4346 20.2025Z" fill="#8C888A" stroke="#8C888A" stroke-width="1.5" stroke-linecap="round" stroke-linejoin="round"/>
</svg>
