<svg width="26" height="26" viewBox="0 0 26 26" fill="none" xmlns="http://www.w3.org/2000/svg">
<path fill-rule="evenodd" clip-rule="evenodd" d="M20.6792 13.6117C20.6457 14.4245 21.286 15.1133 22.1063 15.1471C22.5199 15.1641 22.8419 15.5106 22.8251 15.9204L22.7151 18.5945C22.622 20.8557 20.6899 22.6188 18.4078 22.5249L6.70273 22.0433C4.42066 21.9494 2.63892 20.0335 2.73196 17.7723L2.84198 15.0982C2.85885 14.6883 3.20825 14.3695 3.6219 14.3865C4.4432 14.4203 5.13785 13.7864 5.17129 12.9736C5.20388 12.1816 4.58795 11.5593 3.73966 11.5244C3.54083 11.5162 3.35421 11.4302 3.21907 11.2848C3.08394 11.1394 3.01278 10.947 3.02085 10.751L3.13646 7.98992C3.22949 5.72871 5.16165 3.96463 7.44372 4.05853L19.1458 4.54002C21.4279 4.63391 23.2096 6.55079 23.1166 8.81201L23.0075 11.4871C22.9994 11.6831 22.9127 11.87 22.7671 12.0028C22.6205 12.1366 22.4274 12.207 22.2276 12.1988C21.4073 12.165 20.7126 12.7989 20.6792 13.6117ZM15.1482 14.0317L16.373 12.9436C16.5859 12.756 16.6687 12.4699 16.5908 12.1989C16.5139 11.928 16.2919 11.7284 16.0157 11.6784L14.3978 11.3758L13.7295 9.88457C13.615 9.62796 13.3676 9.4611 13.0849 9.44847L13.0829 9.44839C12.8011 9.4368 12.5409 9.58278 12.4037 9.82902L11.6151 11.2613L9.98086 11.4291C9.69846 11.4572 9.46084 11.6378 9.36091 11.9014C9.26199 12.1651 9.32104 12.4571 9.5168 12.6615L10.648 13.8466L10.3042 15.4419C10.2448 15.7172 10.3464 15.997 10.5694 16.1718C10.6955 16.2693 10.8444 16.323 10.9973 16.3293C11.1142 16.3341 11.2333 16.3102 11.3435 16.2582L12.8315 15.5598L14.2541 16.376C14.5004 16.52 14.8 16.5115 15.0356 16.3546C15.2732 16.1998 15.3974 15.9292 15.3609 15.65L15.1482 14.0317Z" fill="#130F26"/>
<path fill-rule="evenodd" clip-rule="evenodd" d="M20.6792 13.6117C20.6457 14.4245 21.286 15.1133 22.1063 15.1471C22.5199 15.1641 22.8419 15.5106 22.8251 15.9204L22.7151 18.5945C22.622 20.8557 20.6899 22.6188 18.4078 22.5249L6.70273 22.0433C4.42066 21.9494 2.63892 20.0335 2.73196 17.7723L2.84198 15.0982C2.85885 14.6883 3.20825 14.3695 3.6219 14.3865C4.4432 14.4203 5.13785 13.7864 5.17129 12.9736C5.20388 12.1816 4.58795 11.5593 3.73966 11.5244C3.54083 11.5162 3.35421 11.4302 3.21907 11.2848C3.08394 11.1394 3.01278 10.947 3.02085 10.751L3.13646 7.98992C3.22949 5.72871 5.16165 3.96463 7.44372 4.05853L19.1458 4.54002C21.4279 4.63391 23.2096 6.55079 23.1166 8.81201L23.0075 11.4871C22.9994 11.6831 22.9127 11.87 22.7671 12.0028C22.6205 12.1366 22.4274 12.207 22.2276 12.1988C21.4073 12.165 20.7126 12.7989 20.6792 13.6117ZM15.1482 14.0317L16.373 12.9436C16.5859 12.756 16.6687 12.4699 16.5908 12.1989C16.5139 11.928 16.2919 11.7284 16.0157 11.6784L14.3978 11.3758L13.7295 9.88457C13.615 9.62796 13.3676 9.4611 13.0849 9.44847L13.0829 9.44839C12.8011 9.4368 12.5409 9.58278 12.4037 9.82902L11.6151 11.2613L9.98086 11.4291C9.69846 11.4572 9.46084 11.6378 9.36091 11.9014C9.26199 12.1651 9.32104 12.4571 9.5168 12.6615L10.648 13.8466L10.3042 15.4419C10.2448 15.7172 10.3464 15.997 10.5694 16.1718C10.6955 16.2693 10.8444 16.323 10.9973 16.3293C11.1142 16.3341 11.2333 16.3102 11.3435 16.2582L12.8315 15.5598L14.2541 16.376C14.5004 16.52 14.8 16.5115 15.0356 16.3546C15.2732 16.1998 15.3974 15.9292 15.3609 15.65L15.1482 14.0317Z" fill="#4876F7"/>
</svg>
