<svg width="28" height="27" viewBox="0 0 28 27" fill="none" xmlns="http://www.w3.org/2000/svg">
<path d="M25.3425 3.21799C24.9046 2.87953 24.3247 2.78325 23.7891 2.96707C23.3157 3.12754 22.9784 3.50101 22.8216 3.70817C21.6232 5.27792 20.4338 6.85642 19.2443 8.432L18.7176 9.13226L18.0134 7.81052C16.8713 5.66306 15.7263 3.51852 14.5871 1.36814C14.3208 0.869209 13.9598 0.562845 13.4775 0.434465C12.649 0.215634 11.8472 0.571599 11.4359 1.3448L7.29058 9.12934L6.53903 8.13439C5.40283 6.62884 4.26367 5.12328 3.12452 3.61772C2.61264 2.94081 1.82558 2.70155 1.07699 2.99624C0.340241 3.2851 -0.0769568 3.99411 0.0118086 4.80524C0.192298 6.42168 0.372788 8.03519 0.556237 9.65162L0.724891 11.1513C0.807739 11.872 0.887628 12.5956 0.970476 13.3192C1.15984 14.9736 1.34921 16.6279 1.52378 18.2852C1.73978 20.3364 2.85822 21.6611 4.84657 22.23C7.50657 22.9886 10.2405 23.3708 12.9923 23.3708C13.4894 23.3708 13.9864 23.3592 14.4806 23.3329C16.8743 23.2133 19.2029 22.8194 21.4013 22.16C22.8807 21.7165 23.8868 20.6953 24.3069 19.2072C24.4046 18.8571 24.443 18.507 24.4785 18.1977L24.4963 18.0255C24.6501 16.6921 24.7981 15.3587 24.949 14.0253L25.8307 6.22327C25.8869 5.736 25.9461 5.25166 25.9905 4.7644C26.0526 4.15459 25.807 3.57687 25.3425 3.21799Z" fill="#F77C48"/>
<path d="M12.8966 7.37061L13.2179 8.91483C13.5051 10.2955 14.4757 11.4348 15.7931 11.938C14.4748 12.4415 13.5016 13.5788 13.2079 14.9591L12.8966 16.4223L12.5852 14.9591C12.2915 13.5788 11.3183 12.4415 10 11.938C11.3174 11.4348 12.288 10.2955 12.5752 8.91483L12.8966 7.37061Z" fill="white"/>
<path opacity="0.5" d="M9.89655 17.0771L10.2179 18.6214C10.5051 20.002 11.4757 21.1414 12.7931 21.6445C11.4748 22.148 10.5016 23.2853 10.2079 24.6656L9.89655 26.1289L9.58521 24.6656C9.29153 23.2853 8.31828 22.148 7 21.6445C8.31742 21.1414 9.28797 20.002 9.57524 18.6214L9.89655 17.0771Z" fill="white"/>
<path opacity="0.8" d="M22.0259 7.33618L22.6473 10.1741C23.265 12.9952 25.2853 15.303 28 16.2883C25.2835 17.2742 23.2573 19.5775 22.6259 22.3977L22.0259 25.0776L21.4259 22.3977C20.7945 19.5775 18.7683 17.2742 16.0518 16.2883C18.7665 15.303 20.7868 12.9952 21.4045 10.1741L22.0259 7.33618Z" fill="white"/>
</svg>
